# xmcd
# Copyright (C) 1995-1998 Ti Kan
#
# Track frame offsets:
#       150
#       87882
#       158071
#       227984
#
# Disc length: 3566 seconds
#
# Revision: 0
# Processed by: cddbd v1.5.2PL0 Copyright (c) Steve Scherf et al.
# Submitted via: CD-Transfer v1.0
#
DISCID=250dec04
DTITLE=Michael Friedel - 
DYEAR=1900
DGENRE=
TTITLE0=Hitclub 30.01.11 - 001
TTITLE1=Hitclub 30.01.11 - 002
TTITLE2=Hitclub 30.01.11 - 003
TTITLE3=Hitclub 30.01.11 - 004
EXTD=
EXTT0=
EXTT1=
EXTT2=
EXTT3=
PLAYORDER=
